<svg xmlns="http://www.w3.org/2000/svg" xmlns:xlink="http://www.w3.org/1999/xlink" fill="none" version="1.1" width="14.666666984558105" height="14.665945053100586" viewBox="0 0 14.666666984558105 14.665945053100586"><g><path d="M13.3333,4.66594C14.0697,4.66594,14.6667,5.2629,14.6667,5.99928L14.6667,8.66595C14.6667,9.40232,14.0697,9.99928,13.3333,9.99928L12.6253,9.99928C12.289,12.666,10.0211,14.6659,7.33333,14.6659L7.33333,13.3326C9.54247,13.3326,11.3333,11.5418,11.3333,9.33261L11.3333,5.33261C11.3333,3.12347,9.54247,1.33261,7.33333,1.33261C5.12419,1.33261,3.33333,3.12347,3.33333,5.33261L3.33333,9.99928L1.33333,9.99928C0.596954,9.99928,0,9.40232,0,8.66595L0,5.99928C0,5.2629,0.596954,4.66594,1.33333,4.66594L2.04133,4.66594C2.37794,1.99952,4.64575,0,7.33333,0C10.0209,3.97364e-7,12.2887,1.99952,12.6253,4.66594L13.3333,4.66594ZM4.50667,9.85594L5.21333,8.72528C5.84872,9.1233,6.58358,9.33382,7.33333,9.33261C8.08309,9.33382,8.81795,9.1233,9.45333,8.72528L10.16,9.85594C9.31284,10.3867,8.33303,10.6675,7.33333,10.6659C6.33364,10.6675,5.35383,10.3867,4.50667,9.85594Z" fill="#D8D8D8" fill-opacity="1" style="mix-blend-mode:passthrough"/></g></svg>